<svg width="30" height="26" viewBox="0 0 30 26" fill="none" xmlns="http://www.w3.org/2000/svg">
<path d="M1.07181 4.77552C0.780575 4.78273 0.495995 4.68861 0.267565 4.50951C0.0872639 4.28306 -0.0072529 4.0012 0.000434545 3.7129V1.0613C0.000434545 0.750017 0.0904305 0.508063 0.268994 0.331195C0.372912 0.224656 0.49775 0.140318 0.63582 0.083376C0.77389 0.0264338 0.922268 -0.00190693 1.07181 9.95623e-05H28.9277C29.2405 9.95623e-05 29.4848 0.110465 29.6648 0.331195C29.7747 0.418135 29.8623 0.52961 29.9204 0.656505C29.9785 0.783401 30.0055 0.922114 29.9991 1.0613V3.71432C30.0011 3.86244 29.9725 4.00941 29.915 4.14617C29.8575 4.28293 29.7724 4.40658 29.6648 4.50951C29.4862 4.68638 29.2405 4.77552 28.9277 4.77552H1.07181ZM1.07181 15.3876C0.780575 15.3948 0.495995 15.3007 0.267565 15.1216C0.0872639 14.8951 -0.0072529 14.6132 0.000434545 14.3249V11.6733C0.000434545 11.3621 0.0904305 11.1201 0.268994 10.9432C0.372789 10.8364 0.497573 10.7518 0.635649 10.6947C0.773725 10.6375 0.922165 10.6089 1.07181 10.6107H28.9277C29.2405 10.6107 29.4848 10.7225 29.6648 10.9432C29.7745 11.03 29.862 11.1413 29.9201 11.2679C29.9782 11.3945 30.0052 11.533 29.9991 11.6719V14.3264C30.0011 14.4745 29.9725 14.6215 29.915 14.7582C29.8575 14.895 29.7724 15.0186 29.6648 15.1216C29.4862 15.2984 29.2405 15.3876 28.9277 15.3876H1.07181V15.3876ZM1.07181 25.9996C0.780575 26.0068 0.495995 25.9127 0.267565 25.7336C0.0872639 25.5072 -0.0072529 25.2253 0.000434545 24.937V22.284C0.000434545 21.9755 0.0904305 21.7322 0.268994 21.5553C0.372789 21.4485 0.497573 21.3639 0.635649 21.3067C0.773725 21.2495 0.922165 21.221 1.07181 21.2228H28.9277C29.2405 21.2228 29.4848 21.3346 29.6648 21.5553C29.7745 21.6421 29.862 21.7533 29.9201 21.88C29.9782 22.0066 30.0052 22.145 29.9991 22.284V24.937C30.0013 25.0854 29.9728 25.2326 29.9153 25.3696C29.8578 25.5066 29.7725 25.6305 29.6648 25.7336C29.4862 25.9105 29.2405 25.9996 28.9277 25.9996H1.07181Z" fill="black"/>
</svg>
