<svg width="77" height="43" viewBox="0 0 77 43" fill="none" xmlns="http://www.w3.org/2000/svg">
<g clip-path="url(#clip0)">
<path d="M77 21.6589C64.5483 0.424532 23.4721 -13.9192 0 21.5183C0 21.5183 24.3309 -4.29647 40.9331 9.06291C57.5353 22.4223 38.5 35.7213 38.5 35.7213C43.7955 38.9557 50.3806 38.4371 56.5335 36.0026C63.5465 33.3307 71.132 27.7058 77 21.6589Z" fill="url(#paint0_linear)"/>
<path d="M77 21.6589C64.5483 0.424532 23.4721 -13.9192 0 21.5183C0 21.5183 24.3309 -4.29647 40.9331 9.06291C57.5353 22.4223 38.5 35.7213 38.5 35.7213C43.7955 38.9557 50.3806 38.4371 56.5335 36.0026C63.5465 33.3307 71.132 27.7058 77 21.6589Z" fill="url(#paint1_linear)" fill-opacity="0.53"/>
<path d="M0 21.5182C12.4517 42.7525 53.5279 57.0963 77 21.6589C77 21.6589 52.6691 47.4241 36.0669 34.0647C19.4647 20.7054 38.3569 7.31511 38.3569 7.31511C33.0613 4.08073 26.6194 4.69062 20.4665 7.12501C13.4535 9.79688 5.72491 15.612 0 21.5182Z" fill="url(#paint2_linear)"/>
<path d="M0 21.5182C12.4517 42.7525 53.5279 57.0963 77 21.6589C77 21.6589 52.6691 47.4241 36.0669 34.0647C19.4647 20.7054 38.3569 7.31511 38.3569 7.31511C33.0613 4.08073 26.6194 4.69062 20.4665 7.12501C13.4535 9.79688 5.72491 15.612 0 21.5182Z" fill="url(#paint3_linear)" fill-opacity="0.53"/>
</g>
<defs>
<linearGradient id="paint0_linear" x1="77.2862" y1="21.6589" x2="-0.286239" y2="21.5132" gradientUnits="userSpaceOnUse">
<stop stop-color="#00B2FF"/>
<stop offset="1" stop-color="#C700CB"/>
</linearGradient>
<linearGradient id="paint1_linear" x1="38.3569" y1="43.3151" x2="38.495" y2="9.72587e-06" gradientUnits="userSpaceOnUse">
<stop stop-color="white"/>
<stop offset="0.0625" stop-opacity="0.9375"/>
<stop offset="1" stop-color="white" stop-opacity="0"/>
</linearGradient>
<linearGradient id="paint2_linear" x1="-0.286245" y1="21.5182" x2="77.2862" y2="21.6639" gradientUnits="userSpaceOnUse">
<stop stop-color="#00B2FF"/>
<stop offset="0.0001" stop-color="#4299FF"/>
<stop offset="1" stop-color="#C700CB"/>
</linearGradient>
<linearGradient id="paint3_linear" x1="38.3569" y1="0.00261247" x2="38.495" y2="43.1772" gradientUnits="userSpaceOnUse">
<stop/>
<stop offset="1" stop-color="white" stop-opacity="0"/>
</linearGradient>
<clipPath id="clip0">
<rect width="77" height="43" fill="white"/>
</clipPath>
</defs>
</svg>
