<svg width="77" height="63" viewBox="0 0 77 63" fill="none" xmlns="http://www.w3.org/2000/svg">
<g clip-path="url(#clip0)">
<path d="M77 21.6589C64.5483 0.424532 23.4721 -13.9192 0 21.5183C0 21.5183 24.3309 -4.29647 40.9331 9.06291C57.5353 22.4223 38.5 35.7213 38.5 35.7213C43.7955 38.9557 50.3806 38.4371 56.5335 36.0026C63.5465 33.3307 71.132 27.7058 77 21.6589Z" fill="url(#paint0_linear)"/>
<path d="M77 21.6589C64.5483 0.424532 23.4721 -13.9192 0 21.5183C0 21.5183 24.3309 -4.29647 40.9331 9.06291C57.5353 22.4223 38.5 35.7213 38.5 35.7213C43.7955 38.9557 50.3806 38.4371 56.5335 36.0026C63.5465 33.3307 71.132 27.7058 77 21.6589Z" fill="url(#paint1_linear)" fill-opacity="0.53"/>
<path d="M0 21.5182C12.4517 42.7525 53.5279 57.0963 77 21.6589C77 21.6589 52.6691 47.4241 36.0669 34.0647C19.4647 20.7054 38.3569 7.31511 38.3569 7.31511C33.0613 4.08073 26.6194 4.69062 20.4665 7.12501C13.4535 9.79688 5.72491 15.612 0 21.5182Z" fill="url(#paint2_linear)"/>
<path d="M0 21.5182C12.4517 42.7525 53.5279 57.0963 77 21.6589C77 21.6589 52.6691 47.4241 36.0669 34.0647C19.4647 20.7054 38.3569 7.31511 38.3569 7.31511C33.0613 4.08073 26.6194 4.69062 20.4665 7.12501C13.4535 9.79688 5.72491 15.612 0 21.5182Z" fill="url(#paint3_linear)" fill-opacity="0.53"/>
<path d="M3.036 53.2H6.606C7.85667 53.2 8.804 53.4987 9.448 54.096C10.1013 54.6933 10.428 55.4633 10.428 56.406C10.428 57.078 10.26 57.6707 9.924 58.184C9.59733 58.688 9.112 59.0613 8.468 59.304L11.016 63H8.23L6.13 59.612H5.402V63H3.036V53.2ZM6.438 55.216H5.402V57.764H6.438C6.914 57.764 7.28733 57.652 7.558 57.428C7.82867 57.204 7.964 56.8913 7.964 56.49C7.964 56.0793 7.82867 55.7667 7.558 55.552C7.28733 55.328 6.914 55.216 6.438 55.216ZM13.1785 59.556C13.4771 60.088 13.8271 60.5127 14.2285 60.83C14.6391 61.138 15.0918 61.292 15.5865 61.292C15.9411 61.292 16.2258 61.208 16.4405 61.04C16.6645 60.8627 16.7765 60.6247 16.7765 60.326C16.7765 60.0833 16.7111 59.8827 16.5805 59.724C16.4498 59.5653 16.2398 59.416 15.9505 59.276C15.6705 59.136 15.2925 58.9773 14.8165 58.8C14.5738 58.7067 14.3031 58.5853 14.0045 58.436C13.7058 58.2867 13.4165 58.0953 13.1365 57.862C12.8658 57.6287 12.6418 57.344 12.4645 57.008C12.2871 56.6627 12.1985 56.252 12.1985 55.776C12.1985 55.188 12.3478 54.6887 12.6465 54.278C12.9545 53.858 13.3651 53.536 13.8785 53.312C14.4011 53.088 14.9798 52.976 15.6145 52.976C16.2771 52.976 16.8465 53.0833 17.3225 53.298C17.7985 53.5127 18.1951 53.7833 18.5125 54.11C18.8298 54.4367 19.0725 54.768 19.2405 55.104L17.4345 56.112C17.2198 55.7573 16.9631 55.4773 16.6645 55.272C16.3658 55.0573 16.0251 54.95 15.6425 54.95C15.3065 54.95 15.0498 55.0247 14.8725 55.174C14.7045 55.314 14.6205 55.4913 14.6205 55.706C14.6205 56.042 14.8071 56.3173 15.1805 56.532C15.5631 56.7373 16.0951 56.9613 16.7765 57.204C17.2338 57.3627 17.6491 57.5773 18.0225 57.848C18.4051 58.1093 18.7085 58.436 18.9325 58.828C19.1658 59.2107 19.2825 59.6727 19.2825 60.214C19.2825 60.8767 19.1098 61.4413 18.7645 61.908C18.4191 62.3653 17.9665 62.7153 17.4065 62.958C16.8558 63.1913 16.2725 63.308 15.6565 63.308C15.0218 63.308 14.4291 63.196 13.8785 62.972C13.3371 62.7387 12.8611 62.4307 12.4505 62.048C12.0491 61.656 11.7411 61.222 11.5265 60.746L13.1785 59.556ZM29.1637 59.038L31.5437 53.2H34.3157L29.1637 63.616L23.9977 53.2H26.7697L29.1637 59.038ZM35.3426 53.2H37.7506V63H35.3426V53.2ZM40.905 59.556C41.2037 60.088 41.5537 60.5127 41.955 60.83C42.3657 61.138 42.8183 61.292 43.313 61.292C43.6677 61.292 43.9523 61.208 44.167 61.04C44.391 60.8627 44.503 60.6247 44.503 60.326C44.503 60.0833 44.4377 59.8827 44.307 59.724C44.1763 59.5653 43.9663 59.416 43.677 59.276C43.397 59.136 43.019 58.9773 42.543 58.8C42.3003 58.7067 42.0297 58.5853 41.731 58.436C41.4323 58.2867 41.143 58.0953 40.863 57.862C40.5923 57.6287 40.3683 57.344 40.191 57.008C40.0137 56.6627 39.925 56.252 39.925 55.776C39.925 55.188 40.0743 54.6887 40.373 54.278C40.681 53.858 41.0917 53.536 41.605 53.312C42.1277 53.088 42.7063 52.976 43.341 52.976C44.0037 52.976 44.573 53.0833 45.049 53.298C45.525 53.5127 45.9217 53.7833 46.239 54.11C46.5563 54.4367 46.799 54.768 46.967 55.104L45.161 56.112C44.9463 55.7573 44.6897 55.4773 44.391 55.272C44.0923 55.0573 43.7517 54.95 43.369 54.95C43.033 54.95 42.7763 55.0247 42.599 55.174C42.431 55.314 42.347 55.4913 42.347 55.706C42.347 56.042 42.5337 56.3173 42.907 56.532C43.2897 56.7373 43.8217 56.9613 44.503 57.204C44.9603 57.3627 45.3757 57.5773 45.749 57.848C46.1317 58.1093 46.435 58.436 46.659 58.828C46.8923 59.2107 47.009 59.6727 47.009 60.214C47.009 60.8767 46.8363 61.4413 46.491 61.908C46.1457 62.3653 45.693 62.7153 45.133 62.958C44.5823 63.1913 43.999 63.308 43.383 63.308C42.7483 63.308 42.1557 63.196 41.605 62.972C41.0637 62.7387 40.5877 62.4307 40.177 62.048C39.7757 61.656 39.4677 61.222 39.253 60.746L40.905 59.556ZM48.577 53.2H50.985V63H48.577V53.2ZM52.5014 58.1C52.5014 57.344 52.6321 56.6533 52.8934 56.028C53.1641 55.4027 53.5374 54.8613 54.0134 54.404C54.4987 53.9467 55.0587 53.5967 55.6934 53.354C56.3374 53.102 57.0327 52.976 57.7794 52.976C58.5354 52.976 59.2354 53.102 59.8794 53.354C60.5234 53.5967 61.0787 53.9467 61.5454 54.404C62.0214 54.8613 62.3901 55.4027 62.6514 56.028C62.9221 56.6533 63.0574 57.344 63.0574 58.1C63.0574 58.856 62.9267 59.5513 62.6654 60.186C62.4134 60.8207 62.0494 61.3713 61.5734 61.838C61.0974 62.3047 60.5374 62.6687 59.8934 62.93C59.2587 63.182 58.5541 63.308 57.7794 63.308C57.0141 63.308 56.3094 63.182 55.6654 62.93C55.0214 62.6687 54.4614 62.3047 53.9854 61.838C53.5094 61.3713 53.1407 60.8207 52.8794 60.186C52.6274 59.5513 52.5014 58.856 52.5014 58.1ZM55.0074 58.1C55.0074 58.6787 55.1194 59.192 55.3434 59.64C55.5767 60.0787 55.9034 60.424 56.3234 60.676C56.7434 60.928 57.2287 61.054 57.7794 61.054C58.3394 61.054 58.8247 60.928 59.2354 60.676C59.6461 60.424 59.9634 60.0787 60.1874 59.64C60.4207 59.192 60.5374 58.6787 60.5374 58.1C60.5374 57.5213 60.4254 57.0127 60.2014 56.574C59.9774 56.126 59.6601 55.776 59.2494 55.524C58.8387 55.272 58.3487 55.146 57.7794 55.146C57.2287 55.146 56.7434 55.272 56.3234 55.524C55.9034 55.776 55.5767 56.126 55.3434 56.574C55.1194 57.0127 55.0074 57.5213 55.0074 58.1ZM71.3214 53.2H73.6034V63.49L66.8414 57.498V63H64.5594V52.71L71.3214 58.702V53.2Z" fill="black"/>
</g>
<defs>
<linearGradient id="paint0_linear" x1="77.2862" y1="21.6589" x2="-0.286239" y2="21.5132" gradientUnits="userSpaceOnUse">
<stop stop-color="#00B2FF"/>
<stop offset="1" stop-color="#C700CB"/>
</linearGradient>
<linearGradient id="paint1_linear" x1="38.3569" y1="43.3151" x2="38.495" y2="9.72587e-06" gradientUnits="userSpaceOnUse">
<stop stop-color="white"/>
<stop offset="0.0625" stop-opacity="0.9375"/>
<stop offset="1" stop-color="white" stop-opacity="0"/>
</linearGradient>
<linearGradient id="paint2_linear" x1="-0.286245" y1="21.5182" x2="77.2862" y2="21.6639" gradientUnits="userSpaceOnUse">
<stop stop-color="#00B2FF"/>
<stop offset="0.0001" stop-color="#4299FF"/>
<stop offset="1" stop-color="#C700CB"/>
</linearGradient>
<linearGradient id="paint3_linear" x1="38.3569" y1="0.00261247" x2="38.495" y2="43.1772" gradientUnits="userSpaceOnUse">
<stop/>
<stop offset="1" stop-color="white" stop-opacity="0"/>
</linearGradient>
<clipPath id="clip0">
<rect width="77" height="63" fill="white"/>
</clipPath>
</defs>
</svg>
