<svg width="99" height="106" viewBox="0 0 99 106" fill="none" xmlns="http://www.w3.org/2000/svg">
<g clip-path="url(#clip0)">
<path d="M72.276 47.5159C75.4856 47.7358 78.0704 56.6356 78.0704 67.6193C78.0704 78.7308 75.4183 87.7219 72.1579 87.7219C69.8437 87.7219 67.8509 83.19 66.871 76.5926L31.8371 76.6476C30.8579 83.2264 28.8472 87.7219 26.5502 87.7219C23.2897 87.7219 20.6377 78.7308 20.6377 67.6193C20.6377 56.6356 23.2224 47.7358 26.4321 47.5159H72.276Z" fill="#E6E7E8"/>
<path d="M25.8917 40.5716C26.0098 42.8376 26.1951 45.1586 26.4321 47.5159C28.4727 67.3598 34.7612 92.1286 42.8166 102.66C44.426 104.775 46.8253 106 49.3563 106C51.888 106 54.2873 104.775 55.8966 102.66C63.9364 92.1286 70.2272 67.3614 72.2812 47.52C72.5182 45.1626 72.7035 42.8416 72.8216 40.5749V40.5571L25.8917 40.5716Z" fill="#ECF0F1"/>
<path d="M76.3811 25.5856C76.3811 42.7446 69.624 47.5159 49.354 47.5159C29.0841 47.5159 22.327 42.7446 22.327 25.5856C22.327 8.42664 37.5298 0 49.354 0C61.1783 0 76.3811 8.42664 76.3811 25.5856Z" fill="#ECF0F1"/>
<path d="M69.6239 25.5856C69.6239 17.5108 60.5489 10.9651 49.354 10.9651C38.1592 10.9651 29.0841 17.5108 29.0841 25.5856C29.0841 33.6605 38.1592 40.2061 49.354 40.2061C60.5489 40.2061 69.6239 33.6605 69.6239 25.5856Z" fill="#2C2F38"/>
<path d="M42.1678 23.7215C39.5233 22.7293 36.8847 23.4709 36.2733 25.3786C35.6611 27.2855 37.3093 29.6364 39.9531 30.6286C42.5976 31.6209 45.2369 30.8793 45.8484 28.9716C46.4598 27.0647 44.8116 24.7146 42.1678 23.7215Z" fill="#2296EA"/>
<path d="M62.4355 25.3778C61.8241 23.4709 59.1848 22.7293 56.541 23.7216C53.8964 24.7138 52.249 27.0647 52.8604 28.9716C53.4719 30.8786 56.1112 31.6201 58.755 30.6279C61.3995 29.6356 63.047 27.2847 62.4355 25.3778Z" fill="#2296EA"/>
<path d="M62.8677 61.2226C62.8677 63.7466 60.9773 65.7919 58.6444 65.7919C56.3123 65.7919 54.4219 63.7466 54.4219 61.2226C54.4219 58.6994 56.3123 56.6542 58.6444 56.6542C60.9773 56.6542 62.8677 58.6994 62.8677 61.2226Z" fill="#2296EA"/>
<path d="M36.1987 59.616V58.4H40.6307V59.616H39.0947V64H37.7347V59.616H36.1987ZM43.6206 61.976V60.936H46.4526C46.4793 61.3787 46.434 61.7973 46.3166 62.192C46.1993 62.5813 46.018 62.9253 45.7726 63.224C45.5273 63.5227 45.2206 63.7573 44.8526 63.928C44.49 64.0933 44.0686 64.176 43.5886 64.176C42.9966 64.176 42.4686 64.0507 42.0046 63.8C41.546 63.5493 41.1833 63.2027 40.9166 62.76C40.6553 62.312 40.5246 61.792 40.5246 61.2C40.5246 60.608 40.6606 60.0933 40.9326 59.656C41.2046 59.2133 41.5753 58.872 42.0446 58.632C42.514 58.392 43.0446 58.272 43.6366 58.272C44.2286 58.272 44.7326 58.3973 45.1486 58.648C45.5646 58.8933 45.9033 59.2107 46.1646 59.6L44.9566 60.224C44.8286 60.0053 44.658 59.8213 44.4446 59.672C44.2366 59.5227 43.9673 59.448 43.6366 59.448C43.3273 59.448 43.042 59.5173 42.7806 59.656C42.5246 59.7947 42.3193 59.9947 42.1646 60.256C42.0153 60.5173 41.9406 60.832 41.9406 61.2C41.9406 61.568 42.0126 61.888 42.1566 62.16C42.306 62.4267 42.5086 62.6347 42.7646 62.784C43.0206 62.928 43.3113 63 43.6366 63C44.0473 63 44.3726 62.904 44.6126 62.712C44.8526 62.5147 45.018 62.2693 45.1086 61.976H43.6206Z" fill="#2296EA"/>
</g>
<defs>
<clipPath id="clip0">
<rect width="97.9746" height="106" fill="white" transform="translate(0.352509)"/>
</clipPath>
</defs>
</svg>
