<svg width="98" height="106" viewBox="0 0 98 106" fill="none" xmlns="http://www.w3.org/2000/svg">
<g clip-path="url(#clip0)">
<path d="M71.9235 47.5159C75.1331 47.7358 77.7179 56.6356 77.7179 67.6193C77.7179 78.7308 75.0658 87.7219 71.8054 87.7219C69.4912 87.7219 67.4984 83.19 66.5185 76.5926L31.4845 76.6476C30.5054 83.2264 28.4947 87.7219 26.1977 87.7219C22.9372 87.7219 20.2852 78.7308 20.2852 67.6193C20.2852 56.6356 22.8699 47.7358 26.0796 47.5159H71.9235Z" fill="#E6E7E8"/>
<path d="M25.5392 40.5716C25.6573 42.8376 25.8426 45.1586 26.0796 47.5159C28.1202 67.3598 34.4086 92.1286 42.4641 102.66C44.0734 104.775 46.4728 106 49.0038 106C51.5354 106 53.9348 104.775 55.5441 102.66C63.5839 92.1286 69.8746 67.3614 71.9287 47.52C72.1656 45.1626 72.351 42.8416 72.4691 40.5749V40.5571L25.5392 40.5716Z" fill="#ECF0F1"/>
<path d="M76.0286 25.5856C76.0286 42.7446 69.2714 47.5159 49.0015 47.5159C28.7316 47.5159 21.9745 42.7446 21.9745 25.5856C21.9745 8.42664 37.1773 0 49.0015 0C60.8258 0 76.0286 8.42664 76.0286 25.5856Z" fill="#ECF0F1"/>
<path d="M69.2714 25.5856C69.2714 17.5108 60.1964 10.9651 49.0015 10.9651C37.8066 10.9651 28.7316 17.5108 28.7316 25.5856C28.7316 33.6605 37.8066 40.2061 49.0015 40.2061C60.1964 40.2061 69.2714 33.6605 69.2714 25.5856Z" fill="#2C2F38"/>
<path d="M41.8153 23.7215C39.1708 22.7293 36.5322 23.4709 35.9208 25.3786C35.3086 27.2855 36.9568 29.6364 39.6006 30.6286C42.2451 31.6209 44.8844 30.8793 45.4959 28.9716C46.1073 27.0647 44.4591 24.7146 41.8153 23.7215Z" fill="#2296EA"/>
<path d="M62.083 25.3778C61.4716 23.4709 58.8323 22.7293 56.1885 23.7216C53.5439 24.7138 51.8965 27.0647 52.5079 28.9716C53.1193 30.8786 55.7587 31.6201 58.4025 30.6279C61.047 29.6356 62.6944 27.2847 62.083 25.3778Z" fill="#2296EA"/>
<path d="M62.5152 61.2226C62.5152 63.7466 60.6248 65.7919 58.2919 65.7919C55.9598 65.7919 54.0694 63.7466 54.0694 61.2226C54.0694 58.6994 55.9598 56.6542 58.2919 56.6542C60.6248 56.6542 62.5152 58.6994 62.5152 61.2226Z" fill="#2296EA"/>
<path d="M38.7895 61.736L40.1495 58.4H41.7335L38.7895 64.352L35.8375 58.4H37.4215L38.7895 61.736ZM42.3203 58.4H43.7203V60.608L45.6243 58.4H47.2163L44.9443 61.024L47.3363 64H45.6963L43.7203 61.552V64H42.3203V58.4Z" fill="#2296EA"/>
</g>
<defs>
<clipPath id="clip0">
<rect width="97.9746" height="106" fill="white"/>
</clipPath>
</defs>
</svg>
