<svg width="61" height="85" viewBox="0 0 61 85" fill="none" xmlns="http://www.w3.org/2000/svg">
<path d="M30.4982 0C16.6325 0 9.24817 11.3121 9.24817 19.4791C9.24817 24.1081 12.0072 31.875 30.4982 31.875C48.9892 31.875 51.7482 24.1081 51.7482 19.4791C51.7484 10.1115 43.6237 0 30.4982 0ZM30.4982 28.3334C23.8859 28.3334 12.7898 27.1824 12.7898 19.4793C12.7898 12.7962 18.9417 3.54178 30.4982 3.54178C42.5788 3.54178 48.2066 13.0512 48.2066 19.4793C48.2066 27.1822 37.1106 28.3334 30.4982 28.3334Z" fill="url(#paint0_linear)"/>
<path d="M53.8519 33.4121C53.3879 33.0367 52.7716 32.9162 52.2157 33.0899C47.4379 34.5455 39.3169 35.4167 30.4982 35.4167C21.6653 35.4167 13.5407 34.5455 8.77004 33.0864C7.82093 32.7889 6.84343 33.3273 6.55656 34.2586C6.46807 34.5633 6.45745 34.8749 6.5212 35.1617C9.38281 64.9825 19.0091 85 30.4982 85C42.0191 85 51.6632 64.8869 54.4966 34.9491C54.5497 34.3612 54.309 33.784 53.8519 33.4121ZM30.4982 81.4584C21.4988 81.4584 13.1369 62.9674 10.2859 37.138C15.4284 38.2926 22.7278 38.9584 30.4982 38.9584C38.265 38.9584 45.5644 38.2925 50.7104 37.138C47.8596 62.9709 39.5012 81.4584 30.4982 81.4584Z" fill="url(#paint1_linear)"/>
<path d="M9.05709 33.2031L9.04298 33.196C8.17172 32.7604 7.11271 33.1181 6.6736 33.9894C6.23797 34.8641 6.59922 35.9337 7.47396 36.3694C7.73245 36.4969 8.00172 36.5571 8.26735 36.5571C8.91199 36.5571 9.53887 36.1994 9.85048 35.5796C10.2859 34.7047 9.93182 33.6422 9.05709 33.2031Z" fill="url(#paint2_linear)"/>
<path d="M18.1025 46.0418C19.0805 46.0418 19.8733 45.2489 19.8733 44.2709C19.8733 43.2929 19.0805 42.5 18.1025 42.5C17.1244 42.5 16.3316 43.2929 16.3316 44.2709C16.3316 45.2489 17.1244 46.0418 18.1025 46.0418Z" fill="url(#paint3_linear)"/>
<path d="M25.1857 46.0418C26.1637 46.0418 26.9566 45.2489 26.9566 44.2709C26.9566 43.2929 26.1637 42.5 25.1857 42.5C24.2076 42.5 23.4148 43.2929 23.4148 44.2709C23.4148 45.2489 24.2076 46.0418 25.1857 46.0418Z" fill="url(#paint4_linear)"/>
<path d="M32.2691 46.0418C33.2471 46.0418 34.04 45.2489 34.04 44.2709C34.04 43.2929 33.2471 42.5 32.2691 42.5C31.291 42.5 30.4982 43.2929 30.4982 44.2709C30.4982 45.2489 31.291 46.0418 32.2691 46.0418Z" fill="url(#paint5_linear)"/>
<path d="M26.4572 18.2432C24.8988 16.6459 23.1988 15.8915 21.3962 15.9516C18.6691 16.072 16.9196 18.1263 16.7283 18.36C16.1121 19.1179 16.2255 20.2335 16.9868 20.8534C17.3127 21.119 17.7093 21.25 18.1024 21.25C18.6159 21.25 19.1259 21.0269 19.4766 20.5984C19.4837 20.5878 20.4044 19.5394 21.5519 19.4899C22.3241 19.4687 23.0925 19.8689 23.9178 20.7118C24.5978 21.4165 25.7206 21.4272 26.4218 20.7472C27.1231 20.0672 27.1372 18.9444 26.4572 18.2432Z" fill="url(#paint6_linear)"/>
<path d="M44.1691 18.2466C42.6249 16.6528 40.9249 15.8737 39.1399 15.9551C36.4093 16.0648 34.6421 18.1191 34.4472 18.3528C33.8274 19.1037 33.9337 20.2016 34.6774 20.8284C35.4318 21.4553 36.5333 21.3562 37.1672 20.6194C37.1778 20.6088 38.1128 19.5322 39.2993 19.4967C40.0962 19.5498 40.8187 19.8827 41.6227 20.7114C41.9698 21.0692 42.4302 21.2498 42.8942 21.2498C43.337 21.2498 43.7832 21.0833 44.1267 20.7504C44.8315 20.0706 44.8491 18.9478 44.1691 18.2466Z" fill="url(#paint7_linear)"/>
<path d="M15.4284 78.7065C9.87157 70.3659 5.6712 56.7978 3.60281 40.5061C3.47531 39.5358 2.57933 38.8487 1.61942 38.9727C0.649062 39.0967 -0.0380765 39.982 0.0859372 40.9524C2.22156 57.7753 6.6238 71.8818 12.4782 80.6686C12.8217 81.1821 13.3813 81.4584 13.9516 81.4584C14.2916 81.4584 14.6351 81.3628 14.9362 81.1609C15.7508 80.6225 15.9703 79.521 15.4284 78.7065Z" fill="url(#paint8_linear)"/>
<path d="M59.3806 38.9725C58.4243 38.8485 57.5212 39.5356 57.3972 40.506C55.3288 56.7976 51.1284 70.3657 45.5716 78.7063C45.0297 79.521 45.2528 80.6188 46.0638 81.1607C46.3648 81.3626 46.7048 81.4582 47.0448 81.4582C47.615 81.4582 48.1745 81.1819 48.5217 80.6685C54.376 71.8816 58.7748 57.7751 60.9139 40.9522C61.0381 39.9818 60.3474 39.0965 59.3806 38.9725Z" fill="url(#paint9_linear)"/>
<defs>
<linearGradient id="paint0_linear" x1="78.714" y1="-280.5" x2="-17.7142" y2="-280.5" gradientUnits="userSpaceOnUse">
<stop stop-color="#C700CB"/>
<stop offset="0.505208" stop-color="#2296EA"/>
</linearGradient>
<linearGradient id="paint1_linear" x1="78.714" y1="-280.5" x2="-17.7142" y2="-280.5" gradientUnits="userSpaceOnUse">
<stop stop-color="#C700CB"/>
<stop offset="0.505208" stop-color="#2296EA"/>
</linearGradient>
<linearGradient id="paint2_linear" x1="78.714" y1="-280.5" x2="-17.7142" y2="-280.5" gradientUnits="userSpaceOnUse">
<stop stop-color="#C700CB"/>
<stop offset="0.505208" stop-color="#2296EA"/>
</linearGradient>
<linearGradient id="paint3_linear" x1="78.714" y1="-280.5" x2="-17.7142" y2="-280.5" gradientUnits="userSpaceOnUse">
<stop stop-color="#C700CB"/>
<stop offset="0.505208" stop-color="#2296EA"/>
</linearGradient>
<linearGradient id="paint4_linear" x1="78.714" y1="-280.5" x2="-17.7142" y2="-280.5" gradientUnits="userSpaceOnUse">
<stop stop-color="#C700CB"/>
<stop offset="0.505208" stop-color="#2296EA"/>
</linearGradient>
<linearGradient id="paint5_linear" x1="78.714" y1="-280.5" x2="-17.7142" y2="-280.5" gradientUnits="userSpaceOnUse">
<stop stop-color="#C700CB"/>
<stop offset="0.505208" stop-color="#2296EA"/>
</linearGradient>
<linearGradient id="paint6_linear" x1="78.714" y1="-280.5" x2="-17.7142" y2="-280.5" gradientUnits="userSpaceOnUse">
<stop stop-color="#C700CB"/>
<stop offset="0.505208" stop-color="#2296EA"/>
</linearGradient>
<linearGradient id="paint7_linear" x1="78.714" y1="-280.5" x2="-17.7142" y2="-280.5" gradientUnits="userSpaceOnUse">
<stop stop-color="#C700CB"/>
<stop offset="0.505208" stop-color="#2296EA"/>
</linearGradient>
<linearGradient id="paint8_linear" x1="78.714" y1="-280.5" x2="-17.7142" y2="-280.5" gradientUnits="userSpaceOnUse">
<stop stop-color="#C700CB"/>
<stop offset="0.505208" stop-color="#2296EA"/>
</linearGradient>
<linearGradient id="paint9_linear" x1="78.714" y1="-280.5" x2="-17.7142" y2="-280.5" gradientUnits="userSpaceOnUse">
<stop stop-color="#C700CB"/>
<stop offset="0.505208" stop-color="#2296EA"/>
</linearGradient>
</defs>
</svg>
