<svg width="80" height="80" viewBox="0 0 80 80" fill="none" xmlns="http://www.w3.org/2000/svg">
<path d="M40.1656 20.125C34.8449 20.125 29.8555 22.1953 26.1082 25.9426C22.3609 29.6898 20.2906 34.6793 20.2906 40C20.2906 45.3207 22.3609 50.2895 26.1082 54.0574C29.8555 57.8047 34.8656 59.875 40.1656 59.875C45.4863 59.875 50.4758 57.8047 54.223 54.0574C57.9703 50.3102 60.0406 45.3207 60.0406 40C60.0406 34.6793 57.9703 29.7105 54.223 25.9426C50.4758 22.1953 45.4863 20.125 40.1656 20.125ZM40.1656 56.5625C30.9941 56.5625 23.6031 49.1301 23.6031 40C23.6031 30.8699 30.9941 23.4375 40.1656 23.4375C49.3371 23.4375 56.7281 30.8699 56.7281 40C56.7281 49.1301 49.3371 56.5625 40.1656 56.5625Z" fill="url(#paint0_linear)"/>
<path d="M74.8848 31.7188H71.7379C69.1707 31.7188 67.0176 29.5656 67.0176 26.9156C67.0176 25.5906 67.5766 24.4105 68.5703 23.5203L70.5992 21.5328C72.6074 19.5453 72.6074 16.3156 70.5992 14.3074L65.9824 9.73203C65.0715 8.82109 63.7258 8.28281 62.3594 8.28281C60.993 8.28281 59.668 8.82109 58.7363 9.73203L56.7902 11.6781C55.8586 12.7133 54.575 13.2723 53.2293 13.2723C50.5793 13.2723 48.3227 11.1191 48.3227 8.57266V5.44648C48.3227 2.65156 46.1488 0.25 43.3539 0.25H37.0602C34.2031 0.25 31.9258 2.63086 31.9258 5.44648V8.59336C31.9258 11.1398 29.7312 13.293 27.0812 13.293C25.7562 13.293 24.5555 12.734 23.6445 11.7609L21.6363 9.77344C20.7254 8.8418 19.3797 8.32422 18.0133 8.32422C16.6469 8.32422 15.3219 8.8625 14.3902 9.77344L9.77344 14.3281C7.78594 16.3156 7.78594 19.566 9.77344 21.5328L11.7195 23.4789C12.7547 24.4105 13.3344 25.5906 13.3344 26.9363C13.3344 29.5863 11.1812 31.7395 8.61406 31.7395H5.46719C2.63086 31.7188 0.25 34.0375 0.25 36.8531V43.1469C0.25 45.9418 2.63086 48.2813 5.46719 48.2813H8.61406C11.1812 48.2813 13.3344 50.4344 13.3344 53.0844C13.3344 54.4094 12.7547 55.6309 11.7195 56.5625L9.77344 58.4672C7.78594 60.4547 7.78594 63.6844 9.77344 65.6719L14.3902 70.268C15.3012 71.1996 16.6469 71.7172 18.0133 71.7172C19.3797 71.7172 20.7047 71.1789 21.6363 70.268L23.6445 68.2805C24.5141 67.3074 25.7355 66.7484 27.0605 66.7484C29.7105 66.7484 31.9051 68.9016 31.9051 71.4481V74.5949C31.9051 77.3898 34.1824 79.7914 37.0187 79.7914H43.3125C46.1281 79.7914 48.4676 77.4106 48.4676 74.5949V71.4481C48.4676 68.9016 50.6414 66.7484 53.2914 66.7484C54.6164 66.7484 55.8379 67.3281 56.7902 68.3426L58.7363 70.2887C59.668 71.1996 60.993 71.7379 62.3594 71.7379C63.7258 71.7379 65.0508 71.1996 65.9824 70.2887L70.5992 65.6926C72.5867 63.7051 72.5867 60.4547 70.5992 58.4672L68.5703 56.4797C67.5766 55.5895 67.0176 54.3266 67.0176 53.0223C67.0176 50.3723 69.1707 48.1363 71.7379 48.1363H74.8848C77.7004 48.1363 79.7086 46.0039 79.7086 43.1883V36.8531C79.7086 34.0375 77.7004 31.7188 74.8848 31.7188ZM76.4375 43.1262C76.4375 43.9957 75.9613 44.7617 74.9262 44.7617H71.7793C69.6469 44.7617 67.618 45.6727 66.0859 47.2461C64.5746 48.7988 63.7465 50.8484 63.7465 53.0016C63.7465 55.2375 64.6574 57.3078 66.3344 58.8398L68.3012 60.7859C68.9844 61.4898 68.9844 62.6492 68.3012 63.3324L63.6844 67.9285C63.3531 68.2391 62.8769 68.4254 62.3801 68.4254C61.8832 68.4254 61.3863 68.2391 61.0758 67.9285L59.1918 66.0445C57.5977 64.3676 55.5066 63.4359 53.2914 63.4359C51.1383 63.4359 49.1508 64.2641 47.598 65.7547C46.0246 67.2867 45.1965 69.2949 45.1965 71.4481V74.5949C45.1965 75.6094 44.3062 76.4789 43.3539 76.4789H37.0602C36.1078 76.4789 35.259 75.6094 35.259 74.5949V71.4481C35.259 69.3156 34.4102 67.2867 32.8367 65.7547C31.284 64.2641 29.2551 63.4359 27.1227 63.4359C24.9281 63.4359 22.8164 64.3676 21.3051 66.0031L19.3797 67.9285C19.0484 68.2391 18.5723 68.4254 18.0754 68.4254C17.5785 68.4254 17.0816 68.2598 16.8125 67.9699L16.7711 67.9285L12.1543 63.3324C11.4711 62.6492 11.4711 61.5106 12.1543 60.8066L14.0383 58.9434C15.7359 57.3699 16.6676 55.2789 16.6676 53.043C16.6676 50.8898 15.8395 48.923 14.3281 47.3703C12.7961 45.7969 10.7672 44.9895 8.63476 44.9895H5.46719C4.43203 44.9895 3.5625 44.0992 3.5625 43.1676V36.8531C3.5625 35.9215 4.43203 35.0313 5.46719 35.0313H8.61406C10.7465 35.0313 12.7754 34.2238 14.3074 32.6504C15.8187 31.0977 16.6469 29.0895 16.6469 26.957C16.6469 24.7211 15.7152 22.6301 14.0176 21.0773L12.1129 19.1934C11.6574 18.7379 11.5953 18.2203 11.5953 17.9305C11.5953 17.6613 11.6574 17.123 12.1129 16.6676L16.709 12.0922C17.0402 11.7816 17.5164 11.5953 18.0133 11.5953C18.5102 11.5953 19.007 11.7609 19.2762 12.0508L21.2637 14.0383C22.7957 15.6945 24.866 16.6055 27.0812 16.6055C29.2344 16.6055 31.2426 15.7773 32.7953 14.2867C34.3687 12.7547 35.2383 10.7465 35.2383 8.59336V5.44648C35.2383 4.43203 36.0664 3.5625 36.998 3.5625H43.3125C44.2441 3.5625 44.9687 4.43203 44.9687 5.44648V8.59336C44.9687 10.7258 45.8797 12.7547 47.4531 14.2867C49.0059 15.7773 51.0555 16.6055 53.2086 16.6055C55.4445 16.6055 57.5562 15.6738 59.1297 13.9969L61.0137 12.1129C61.3449 11.8023 61.8211 11.616 62.318 11.616C62.8148 11.616 63.3117 11.8023 63.6223 12.0922L68.2391 16.6676C68.5703 16.9988 68.7773 17.4543 68.7773 17.9305C68.7773 18.4066 68.591 18.8621 68.2598 19.1934L66.293 21.1395C64.6367 22.6715 63.7051 24.7418 63.7051 26.9777C63.7051 29.1309 64.5332 31.0977 66.0445 32.6504C67.5766 34.2238 69.6055 35.0313 71.7379 35.0313H74.8848C76.0027 35.0313 76.4168 36.0664 76.4375 36.8945V43.1262Z" fill="url(#paint1_linear)"/>
<defs>
<linearGradient id="paint0_linear" x1="96.9978" y1="40.0004" x2="-21" y2="40.0004" gradientUnits="userSpaceOnUse">
<stop stop-color="#C700CB"/>
<stop offset="0.692451" stop-color="#2296EA"/>
</linearGradient>
<linearGradient id="paint1_linear" x1="96.9978" y1="40.0004" x2="-21" y2="40.0004" gradientUnits="userSpaceOnUse">
<stop stop-color="#C700CB"/>
<stop offset="0.692451" stop-color="#2296EA"/>
</linearGradient>
</defs>
</svg>
