<svg width="101" height="85" viewBox="0 0 101 85" fill="none" xmlns="http://www.w3.org/2000/svg">
<path d="M4.90417 23.5234C4.90417 23.5234 23.4719 43.3021 44.0578 45.7239M96.1281 23.927C96.1281 23.927 77.5604 43.7057 56.9745 46.1275M29.4653 21.0206V8.45919C29.4653 4.9071 32.3715 2.00085 35.9236 2.00085H66.7299C70.2819 2.00085 73.1882 4.9071 73.1882 8.45919V21.0206M36.1818 21.0208V12.2375C36.1818 10.4614 37.635 9.0083 39.411 9.0083H62.2735C64.0495 9.0083 65.5027 10.4614 65.5027 12.2375V21.0208M98.55 76.4011C98.55 79.9532 95.6438 82.8594 92.0917 82.8594H8.94063C5.38855 82.8594 2.4823 79.9532 2.4823 76.4011V27.4727C2.4823 23.9207 5.38855 21.0144 8.94063 21.0144H92.0917C95.6438 21.0144 98.55 23.9207 98.55 27.4727V76.4011ZM58.137 46.7992C58.137 50.5903 55.066 53.6612 51.275 53.6612C47.484 53.6612 44.413 50.5903 44.413 46.7992C44.413 43.0082 47.484 39.9373 51.275 39.9373C55.066 39.9373 58.137 43.0082 58.137 46.7992Z" stroke="url(#paint0_linear)" stroke-width="4" stroke-miterlimit="10"/>
<defs>
<linearGradient id="paint0_linear" x1="111" y1="50" x2="-15" y2="50" gradientUnits="userSpaceOnUse">
<stop stop-color="#883AD7"/>
<stop offset="1" stop-color="#2397EB"/>
</linearGradient>
</defs>
</svg>
