<svg width="86" height="87" viewBox="0 0 86 87" fill="none" xmlns="http://www.w3.org/2000/svg">
<path d="M2.03253 12.8642H83.7634M5.98725 7.5912H8.62373M11.2602 7.5912H13.8967M77.1722 7.5912H79.8087M7.30549 61.639H9.94197M12.5785 61.639H15.2149M31.0338 61.639H33.6703M36.3068 61.639H38.9432M41.5797 61.639H44.2162M60.0351 61.639H62.6716M7.30549 66.912H33.6703M7.30549 72.185H33.6703M7.30549 77.4579H24.4426M36.3068 66.912H62.6716M36.3068 72.185H62.6716M36.3068 77.4579H53.4439M4.66901 2.31824H81.1269C82.583 2.31824 83.7634 3.49863 83.7634 4.95472V81.4126C83.7634 82.8687 82.583 84.0491 81.1269 84.0491H4.66901C3.21292 84.0491 2.03253 82.8687 2.03253 81.4126V4.95472C2.03253 3.49863 3.21292 2.31824 4.66901 2.31824ZM9.94197 19.4554H75.854C76.582 19.4554 77.1722 20.0456 77.1722 20.7736V39.229C77.1722 39.957 76.582 40.5472 75.854 40.5472H9.94197C9.21393 40.5472 8.62373 39.957 8.62373 39.229V20.7736C8.62373 20.0456 9.21393 19.4554 9.94197 19.4554ZM9.94197 47.1384H31.0338C31.7619 47.1384 32.352 47.7286 32.352 48.4566V53.7296C32.352 54.4576 31.7619 55.0478 31.0338 55.0478H9.94197C9.21393 55.0478 8.62373 54.4576 8.62373 53.7296V48.4566C8.62373 47.7286 9.21393 47.1384 9.94197 47.1384ZM38.9432 47.1384H60.0351C60.7631 47.1384 61.3533 47.7286 61.3533 48.4566V53.7296C61.3533 54.4576 60.7631 55.0478 60.0351 55.0478H38.9432C38.2152 55.0478 37.625 54.4576 37.625 53.7296V48.4566C37.625 47.7286 38.2152 47.1384 38.9432 47.1384ZM67.9445 47.1384H75.854C76.582 47.1384 77.1722 47.7286 77.1722 48.4566V53.7296C77.1722 54.4576 76.582 55.0478 75.854 55.0478H67.9445C67.2165 55.0478 66.6263 54.4576 66.6263 53.7296V48.4566C66.6263 47.7286 67.2165 47.1384 67.9445 47.1384ZM67.9445 60.3208H75.854C76.582 60.3208 77.1722 60.911 77.1722 61.639V77.4579C77.1722 78.1859 76.582 78.7761 75.854 78.7761H67.9445C67.2165 78.7761 66.6263 78.1859 66.6263 77.4579V61.639C66.6263 60.911 67.2165 60.3208 67.9445 60.3208Z" stroke="url(#paint0_linear)" stroke-width="4" stroke-linejoin="round"/>
<defs>
<linearGradient id="paint0_linear" x1="100" y1="43" x2="-14.5" y2="43" gradientUnits="userSpaceOnUse">
<stop stop-color="#863CD8"/>
<stop offset="1" stop-color="#2397EB"/>
</linearGradient>
</defs>
</svg>
