<svg width="25" height="26" viewBox="0 0 25 26" fill="none" xmlns="http://www.w3.org/2000/svg">
<path d="M24.6139 4.27803L16.2273 13L24.6139 21.7221C25.1287 22.2574 25.1287 23.125 24.6139 23.6603L22.7503 25.5985C22.2353 26.1338 21.4014 26.1338 20.8866 25.5985L12.5 16.8764L4.11348 25.5985C3.59863 26.1338 2.76464 26.1338 2.24979 25.5985L0.386134 23.6603C-0.128711 23.125 -0.128711 22.2574 0.386134 21.7221L8.77268 13L0.386134 4.27803C-0.128711 3.74259 -0.128711 2.87523 0.386134 2.33979L2.24979 0.401559C2.76464 -0.133853 3.59863 -0.133853 4.11348 0.401559L12.5 9.1236L20.8866 0.401559C21.4014 -0.133853 22.2353 -0.133853 22.7503 0.401559L24.6139 2.33979C25.1287 2.87523 25.1287 3.74259 24.6139 4.27803Z" fill="black"/>
</svg>
